<svg xmlns="http://www.w3.org/2000/svg" aria-hidden="true" style="position:absolute;width:0;height:0;overflow:hidden">
  <defs>
    <symbol id="icon-close" viewBox="0 0 32 32">
      <path fill="#fff" d="m8.532 25.333-1.867-1.867 7.467-7.467-7.467-7.467 1.867-1.867 7.467 7.467 7.467-7.467 1.867 1.867-7.467 7.467 7.467 7.467-1.867 1.867-7.467-7.467-7.467 7.467z" style="fill:var(--color1, #fff)"/>
    </symbol>
    <symbol id="icon-email" viewBox="0 0 32 32">
      <path fill="#192a4d" d="M28.415 3.585a2.001 2.001 0 0 0-1.958-.51h-.019l-23.993 7.28a1.998 1.998 0 0 0-1.182 2.916 2 2 0 0 0 .87.809l10.615 5.17 5.163 10.609a1.98 1.98 0 0 0 1.978 1.133 1.984 1.984 0 0 0 1.75-1.438l7.275-23.993v-.019a2 2 0 0 0-.5-1.958zm-8.686 25.396-.006.017v-.009l-5.007-10.288 6-6a1 1 0 0 0-1.413-1.414l-6 6L3.02 12.28l23.981-7.281L19.73 28.98z" style="fill:var(--color2, #192a4d)"/>
    </symbol>
    <symbol id="icon-menu" viewBox="0 0 32 32">
      <path fill="#fff" d="M4 24v-2.667h24V24H4zm0-6.667v-2.667h24v2.667H4zm0-6.666V8h24v2.667H4z" style="fill:var(--color1, #fff)"/>
    </symbol>
    <symbol id="icon-minus" viewBox="0 0 32 32">
      <path fill="#fff" d="M28 16a.997.997 0 0 1-1 1H5a.997.997 0 0 1-1-1 .997.997 0 0 1 1-1h22a.997.997 0 0 1 1 1z" style="fill:var(--color1, #fff)"/>
    </symbol>
    <symbol id="icon-playstore" viewBox="0 0 32 32">
      <path fill="#ea4335" d="M15.066 15.282 2.003 29.341l.002.009C2.406 30.877 3.78 32 5.412 32c.653 0 1.265-.179 1.79-.493l.042-.025 14.703-8.603-6.881-7.597z" style="fill:var(--color3, #ea4335)"/>
      <path fill="#fbbc04" d="m28.28 12.888-.012-.009-6.348-3.731-7.151 6.453 7.177 7.276 6.314-3.694a3.589 3.589 0 0 0 1.859-3.154 3.583 3.583 0 0 0-1.838-3.142z" style="fill:var(--color4, #fbbc04)"/>
      <path fill="#4285f4" d="M2.003 2.658a3.54 3.54 0 0 0-.12.921v24.843c0 .319.042.627.121.919l13.51-13.699L2.003 2.658z" style="fill:var(--color5, #4285f4)"/>
      <path fill="#34a853" d="m15.163 16 6.76-6.854L7.237.512A3.492 3.492 0 0 0 5.414.001c-1.632 0-3.008 1.126-3.409 2.654l-.001.004 13.159 13.342z" style="fill:var(--color6, #34a853)"/>
    </symbol>
    <symbol id="icon-plus" viewBox="0 0 32 32">
      <path fill="#fff" d="M28 16a.997.997 0 0 1-1 1H17v10a.997.997 0 0 1-1 1 .997.997 0 0 1-1-1V17H5a.997.997 0 0 1-1-1 .997.997 0 0 1 1-1h10V5a.997.997 0 0 1 1-1 .997.997 0 0 1 1 1v10h10a.997.997 0 0 1 1 1z" style="fill:var(--color1, #fff)"/>
    </symbol>
  </defs>
</svg>
